<svg xmlns="http://www.w3.org/2000/svg" viewBox="0 0 800 200">
  <rect width="800" height="200" fill="#f5f5f5" />
  
  <!-- Steps -->
  <g transform="translate(50, 80)">
    <circle cx="0" cy="0" r="20" fill="#4caf50" />
    <text x="0" y="5" fill="white" text-anchor="middle" font-weight="bold" font-family="Arial" font-size="14">1</text>
    <text x="0" y="40" fill="#333" text-anchor="middle" font-family="Arial" font-size="10">K3s Install</text>
  </g>
  
  <line x1="70" y1="80" x2="130" y2="80" stroke="#ccc" stroke-width="4" />
  
  <g transform="translate(150, 80)">
    <circle cx="0" cy="0" r="20" fill="#2196f3" />
    <text x="0" y="5" fill="white" text-anchor="middle" font-weight="bold" font-family="Arial" font-size="14">2</text>
    <text x="0" y="40" fill="#333" text-anchor="middle" font-family="Arial" font-size="10">Build Images</text>
  </g>

  <line x1="170" y1="80" x2="230" y2="80" stroke="#ccc" stroke-width="4" />

  <g transform="translate(250, 80)">
    <circle cx="0" cy="0" r="20" fill="#9c27b0" />
    <text x="0" y="5" fill="white" text-anchor="middle" font-weight="bold" font-family="Arial" font-size="14">3</text>
    <text x="0" y="40" fill="#333" text-anchor="middle" font-family="Arial" font-size="10">Infra Setup</text>
  </g>

  <line x1="270" y1="80" x2="330" y2="80" stroke="#ccc" stroke-width="4" />

  <g transform="translate(350, 80)">
    <circle cx="0" cy="0" r="20" fill="#ff9800" />
    <text x="0" y="5" fill="white" text-anchor="middle" font-weight="bold" font-family="Arial" font-size="14">4</text>
    <text x="0" y="40" fill="#333" text-anchor="middle" font-family="Arial" font-size="10">App Deploy</text>
  </g>
  
  <line x1="370" y1="80" x2="430" y2="80" stroke="#ccc" stroke-width="4" />

  <g transform="translate(450, 80)">
    <circle cx="0" cy="0" r="20" fill="#795548" />
    <text x="0" y="5" fill="white" text-anchor="middle" font-weight="bold" font-family="Arial" font-size="14">5</text>
    <text x="0" y="40" fill="#333" text-anchor="middle" font-family="Arial" font-size="10">Monitor Infra</text>
  </g>

  <line x1="470" y1="80" x2="530" y2="80" stroke="#ccc" stroke-width="4" />

  <g transform="translate(550, 80)">
    <circle cx="0" cy="0" r="20" fill="#607d8b" />
    <text x="0" y="5" fill="white" text-anchor="middle" font-weight="bold" font-family="Arial" font-size="14">6</text>
    <text x="0" y="40" fill="#333" text-anchor="middle" font-family="Arial" font-size="10">OTel Setup</text>
  </g>

  <line x1="570" y1="80" x2="630" y2="80" stroke="#ccc" stroke-width="4" />

  <g transform="translate(650, 80)">
    <circle cx="0" cy="0" r="20" fill="#e91e63" />
    <text x="0" y="5" fill="white" text-anchor="middle" font-weight="bold" font-family="Arial" font-size="14">7</text>
    <text x="0" y="40" fill="#333" text-anchor="middle" font-family="Arial" font-size="10">Practice</text>
  </g>

  <line x1="670" y1="80" x2="730" y2="80" stroke="#ccc" stroke-width="4" />

  <g transform="translate(750, 80)">
    <circle cx="0" cy="0" r="20" fill="#000000" />
    <text x="0" y="5" fill="white" text-anchor="middle" font-weight="bold" font-family="Arial" font-size="14">8</text>
    <text x="0" y="40" fill="#333" text-anchor="middle" font-family="Arial" font-size="10">Cleanup</text>
  </g>
</svg>
